HIERARCHY
ROOT Pelvis
{
	OFFSET 0.000000 0.000000 0.000000
	CHANNELS 6 Xposition Yposition Zposition Xrotation Yrotation Zrotation
	JOINT LeftUpLeg_virtual
	{
		OFFSET 0.000000 0.000000 0.000000
		CHANNELS 3 Xrotation Yrotation Zrotation
		JOINT LeftUpLeg
		{
			OFFSET 18.735201 -5.666702 -4.541200
			CHANNELS 3 Xrotation Yrotation Zrotation
			JOINT LeftLeg
			{
				OFFSET -0.021200 -31.938179 0.493100
				CHANNELS 3 Xrotation Yrotation Zrotation
				JOINT LeftFoot
				{
					OFFSET 0.021200 -31.938179 -4.336299
					CHANNELS 3 Xrotation Yrotation Zrotation
					JOINT LeftToeBase
					{
						OFFSET 0.943001 -26.722000 15.023500
						CHANNELS 3 Xrotation Yrotation Zrotation
						End Site
						{
							OFFSET 0 0 0
						}
					}
				}
			}
		}
	}
	JOINT RightUpLeg_virtual
	{
		OFFSET 0.000000 0.000000 0.000000
		CHANNELS 3 Xrotation Yrotation Zrotation
		JOINT RightUpLeg
		{
			OFFSET -18.735201 -5.666702 -4.541200
			CHANNELS 3 Xrotation Yrotation Zrotation
			JOINT RightLeg
			{
				OFFSET 0.018946 -31.938133 0.493100
				CHANNELS 3 Xrotation Yrotation Zrotation
				JOINT RightFoot
				{
					OFFSET -0.018946 -31.938126 -4.336299
					CHANNELS 3 Xrotation Yrotation Zrotation
					JOINT RightToeBase
					{
						OFFSET -0.943001 -26.722004 15.023500
						CHANNELS 3 Xrotation Yrotation Zrotation
						End Site
						{
							OFFSET 0 0 0
						}
					}
				}
			}
		}
	}
	JOINT Hips_virtual
	{
		OFFSET 0.000000 0.000000 0.000000
		CHANNELS 3 Xrotation Yrotation Zrotation
		JOINT Hips
		{
			OFFSET -0.000000 -0.000000 -0.000000
			CHANNELS 3 Xrotation Yrotation Zrotation
			JOINT Spine
			{
				OFFSET 0.000000 10.199997 -0.299500
				CHANNELS 3 Xrotation Yrotation Zrotation
				JOINT Spine1
				{
					OFFSET 0.000000 11.900002 -1.516600
					CHANNELS 3 Xrotation Yrotation Zrotation
					JOINT Spine2
					{
						OFFSET 0.000000 13.600006 -2.842500
						CHANNELS 3 Xrotation Yrotation Zrotation
						JOINT Neck_virtual
						{
							OFFSET 0.000000 0.000000 0.000000
							CHANNELS 3 Xrotation Yrotation Zrotation
							JOINT Neck
							{
								OFFSET 0.000000 9.624100 -2.890100
								CHANNELS 3 Xrotation Yrotation Zrotation
								JOINT Head
								{
									OFFSET 0.000000 14.068802 -1.351900
									CHANNELS 3 Xrotation Yrotation Zrotation
									End Site
									{
										OFFSET 0 0 0
									}
								}
							}
						}
						JOINT LeftShoulder_virtual
						{
							OFFSET 0.000000 0.000000 0.000000
							CHANNELS 3 Xrotation Yrotation Zrotation
							JOINT LeftShoulder
							{
								OFFSET 15.263000 10.923401 -0.547700
								CHANNELS 3 Xrotation Yrotation Zrotation
								JOINT LeftArm
								{
									OFFSET 25.438599 -2.830597 -13.032500
									CHANNELS 3 Xrotation Yrotation Zrotation
									JOINT LeftForeArm
									{
										OFFSET 29.960503 0.000000 0.000000
										CHANNELS 3 Xrotation Yrotation Zrotation
										JOINT LeftHand
										{
											OFFSET 27.849251 0.000000 0.000000
											CHANNELS 3 Xrotation Yrotation Zrotation
											End Site
											{
												OFFSET 0 0 0
											}
										}
									}
								}
							}
						}
						JOINT RightShoulder_virtual
						{
							OFFSET 0.000000 0.000000 0.000000
							CHANNELS 3 Xrotation Yrotation Zrotation
							JOINT RightShoulder
							{
								OFFSET -15.263000 10.923401 -0.547700
								CHANNELS 3 Xrotation Yrotation Zrotation
								JOINT RightArm
								{
									OFFSET -25.438599 -2.830597 -13.032500
									CHANNELS 3 Xrotation Yrotation Zrotation
									JOINT RightForeArm
									{
										OFFSET -29.960503 0.000000 0.000000
										CHANNELS 3 Xrotation Yrotation Zrotation
										JOINT RightHand
										{
											OFFSET -27.849251 0.000000 0.000000
											CHANNELS 3 Xrotation Yrotation Zrotation
											End Site
											{
												OFFSET 0 0 0
											}
										}
									}
								}
							}
						}
					}
				}
			}
		}
	}
}
MOTION
Frames: 13
Frame Time: 0.03333333
0.504704 90.199799 3.955746 0.000000 0.000000 0.000000 -0.368786 -0.404034 0.477358 -14.288357 1.791925 7.951558 31.072870 3.157759 2.242655 -13.767963 4.518860 -12.957587 0.000000 0.000000 0.000000 -1.136678 0.836493 0.269972 -15.486612 2.936424 -2.696002 28.773937 -2.475601 -3.081324 -15.578155 -2.937791 9.085446 0.000000 0.000000 0.000000 -0.965037 0.116853 0.606652 0.041764 -0.027552 -1.397144 0.256850 0.010510 1.550209 -2.198021 -0.869061 0.217960 0.000000 0.000000 0.000000 -2.380380 -0.168322 0.093813 0.670862 -0.418540 -0.009023 0.000000 0.000000 0.000000 -2.259542 -0.138035 -0.038023 0.910301 -14.059906 -11.173479 15.889199 -19.929650 -67.752772 -0.075321 -21.576709 0.246625 0.000000 0.000000 0.000000 -2.170042 -0.093713 -0.066273 2.440414 8.732843 10.369327 8.469616 25.964558 63.440689 0.746257 18.322075 0.673775 0.000000 0.000000 0.000000 
0.549448 90.150101 4.208237 0.000000 0.000000 0.000000 -0.359074 -0.672621 0.595116 -14.190036 1.974981 7.837979 30.992974 3.367578 2.209395 -14.059742 4.616625 -12.771567 0.000000 0.000000 0.000000 -0.966538 0.709558 0.303841 -15.570668 3.033899 -2.734949 28.844295 -2.175852 -3.096990 -14.931492 -2.554636 9.582724 0.000000 0.000000 0.000000 -1.000764 -0.132442 0.684974 -0.081883 -0.000391 -1.382651 0.250757 0.030692 1.516927 -2.133852 -0.801908 0.213009 0.000000 0.000000 0.000000 -2.297565 -0.119260 0.077150 0.683194 -0.399309 -0.027329 0.000000 0.000000 0.000000 -2.187158 -0.076931 -0.053276 0.931733 -13.994856 -11.075054 15.776480 -19.944637 -67.713246 -0.113548 -21.717859 0.191206 0.000000 0.000000 0.000000 -2.104464 -0.043201 -0.080797 2.416493 8.750610 10.383205 8.638250 25.736511 63.456221 0.792200 18.277238 0.633373 0.000000 0.000000 0.000000 
0.698673 90.137291 4.469418 0.000000 0.000000 0.000000 -0.229997 -1.049041 0.717301 -14.086393 2.486597 7.618425 30.695464 3.909572 2.125739 -14.368220 4.894693 -12.432582 0.000000 0.000000 0.000000 -0.776866 0.469628 0.331397 -15.822721 2.923265 -2.802733 29.290296 -1.719975 -3.035289 -14.215428 -2.027696 9.954768 0.000000 0.000000 0.000000 -0.998157 -0.483346 0.743282 -0.208218 0.162614 -1.311666 0.292337 0.091980 1.380883 -2.015851 -0.700492 0.217708 0.000000 0.000000 0.000000 -2.146695 -0.030228 0.055313 0.684954 -0.394728 -0.058001 0.000000 0.000000 0.000000 -2.054662 0.017182 -0.075600 0.956979 -13.991589 -10.979563 15.452166 -20.019452 -67.657238 -0.166817 -21.897826 0.102126 0.000000 0.000000 0.000000 -1.977014 0.050655 -0.086145 2.382227 8.736557 10.424475 8.758907 25.680441 63.311154 0.857946 18.101717 0.564332 0.000000 0.000000 0.000000 
0.888976 90.155365 4.574409 0.000000 0.000000 0.000000 -0.028097 -1.481862 0.827054 -14.118756 3.084280 7.392302 30.392293 4.686771 2.029920 -14.501269 5.263834 -12.010205 0.000000 0.000000 0.000000 -0.597534 0.122414 0.356772 -16.249572 2.652596 -2.832200 29.943638 -1.244711 -2.978901 -13.821760 -1.557633 10.051373 0.000000 0.000000 0.000000 -0.904299 -0.944422 0.781482 -0.333527 0.340854 -1.204532 0.427893 0.173279 1.168161 -1.822367 -0.577509 0.230090 0.000000 0.000000 0.000000 -1.933930 0.084738 0.033558 0.667796 -0.401718 -0.087481 0.000000 0.000000 0.000000 -1.872613 0.133924 -0.106420 0.979850 -14.038080 -10.890490 14.962670 -20.089811 -67.585548 -0.211637 -22.126546 0.000780 0.000000 0.000000 0.000000 -1.796182 0.171075 -0.085717 2.354257 8.736841 10.475079 8.805203 25.860833 63.074734 0.940965 17.921537 0.462422 0.000000 0.000000 0.000000 
1.108233 90.201782 4.520580 0.000000 0.000000 0.000000 0.270272 -2.013153 0.863347 -14.406302 3.461072 7.232358 30.406974 5.519974 1.977459 -14.394349 5.627211 -11.627959 0.000000 0.000000 0.000000 -0.363273 -0.282379 0.352235 -16.724934 2.426770 -2.711638 30.472947 -0.827939 -3.012115 -14.230871 -1.322479 9.912325 0.000000 0.000000 0.000000 -0.671846 -1.493322 0.776976 -0.393385 0.497413 -1.107888 0.674408 0.241542 0.937925 -1.544480 -0.454578 0.237712 0.000000 0.000000 0.000000 -1.671624 0.208923 0.005681 0.622804 -0.418947 -0.097337 0.000000 0.000000 0.000000 -1.643097 0.257419 -0.153308 0.999345 -14.143858 -10.825230 14.340783 -20.092905 -67.502596 -0.218534 -22.412275 -0.088567 0.000000 0.000000 0.000000 -1.554285 0.298466 -0.090079 2.348791 8.794789 10.519319 8.817130 26.306521 62.770265 1.036003 17.779443 0.332978 0.000000 0.000000 0.000000 
1.310904 90.250183 4.273079 0.000000 0.000000 0.000000 0.722730 -2.591644 0.778451 -14.961813 3.479320 7.230415 30.898550 6.268214 1.978962 -14.192950 5.879069 -11.444312 0.000000 0.000000 0.000000 -0.021242 -0.853032 0.254717 -17.192747 2.433275 -2.374136 30.635909 -0.486591 -3.143366 -15.057651 -1.324832 9.769389 0.000000 0.000000 0.000000 -0.255850 -2.101883 0.695596 -0.449319 0.607719 -1.114215 1.039693 0.264065 0.740804 -1.166887 -0.353135 0.221975 0.000000 0.000000 0.000000 -1.371370 0.325846 -0.032151 0.545509 -0.443977 -0.067297 0.000000 0.000000 0.000000 -1.376529 0.371590 -0.223146 1.024860 -14.304592 -10.762289 13.648687 -20.001476 -67.405211 -0.170875 -22.718271 -0.141493 0.000000 0.000000 0.000000 -1.253894 0.408811 -0.115297 2.368546 8.949344 10.551482 8.798602 27.009814 62.395581 1.134490 17.664947 0.191450 0.000000 0.000000 0.000000 
1.465842 90.303078 3.872166 0.000000 0.000000 0.000000 1.324003 -3.115418 0.510828 -15.720543 3.278069 7.474343 31.682393 6.903625 2.014325 -14.243478 5.970712 -11.539509 0.000000 0.000000 0.000000 0.528790 -1.478751 0.014802 -17.698854 2.747247 -1.806741 30.289099 -0.179435 -3.332086 -15.497783 -1.569774 9.699766 0.000000 0.000000 0.000000 0.362496 -2.757807 0.452738 -0.451419 0.772277 -1.167835 1.469391 0.238595 0.582738 -0.721442 -0.280772 0.158906 0.000000 0.000000 0.000000 -1.043054 0.418327 -0.092953 0.446488 -0.476281 0.014494 0.000000 0.000000 0.000000 -1.054558 0.461224 -0.324783 1.068616 -14.539065 -10.690692 12.790870 -19.755781 -67.310783 -0.079413 -22.974943 -0.149072 0.000000 0.000000 0.000000 -0.902372 0.485533 -0.184603 2.412351 9.235530 10.572502 8.719086 27.885168 61.922072 1.214196 17.575829 0.046954 0.000000 0.000000 0.000000 
1.534691 90.371765 3.396374 0.000000 0.000000 0.000000 2.059973 -3.651479 0.015915 -16.640252 3.007122 8.025124 32.648263 7.416797 2.039390 -14.683638 5.942586 -11.915315 0.000000 0.000000 0.000000 1.234234 -2.046582 -0.457318 -18.422478 3.210589 -1.028408 29.600728 0.019582 -3.428041 -15.319904 -2.038963 9.566227 0.000000 0.000000 0.000000 1.132803 -3.425179 -0.024532 -0.411992 0.872262 -1.229557 1.909662 0.182101 0.460023 -0.259417 -0.236416 0.046021 0.000000 0.000000 0.000000 -0.694303 0.478079 -0.189986 0.345056 -0.515665 0.147182 0.000000 0.000000 0.000000 -0.683504 0.518453 -0.458941 1.129259 -14.869295 -10.593994 11.719928 -19.299738 -67.220072 0.055529 -23.186961 -0.113946 0.000000 0.000000 0.000000 -0.513314 0.531540 -0.302477 2.462150 9.667140 10.587828 8.493026 28.850156 61.365698 1.258365 17.552405 -0.078203 0.000000 0.000000 0.000000 
1.434629 90.425613 2.844212 0.000000 0.000000 0.000000 2.834406 -4.174355 -0.688362 -17.701255 2.757282 8.902989 33.734523 7.972349 2.032763 -15.376489 5.977117 -12.386611 0.000000 0.000000 0.000000 1.978804 -2.744800 -1.153742 -19.611543 3.596368 -0.167379 28.982702 0.143150 -3.255467 -14.056774 -2.593855 9.568654 0.000000 0.000000 0.000000 1.945170 -4.105960 -0.725615 -0.366811 0.870063 -1.282051 2.368936 0.121619 0.335101 0.191462 -0.206836 -0.107070 0.000000 0.000000 0.000000 -0.333663 0.508380 -0.320738 0.268325 -0.551188 0.319088 0.000000 0.000000 0.000000 -0.277782 0.546573 -0.616813 1.197380 -15.303256 -10.461770 10.528495 -18.594007 -67.115959 0.204114 -23.504931 -0.046418 0.000000 0.000000 0.000000 -0.102092 0.553561 -0.458969 2.502437 10.250097 10.644005 8.132964 29.787835 60.758959 1.261758 17.758113 -0.160833 0.000000 0.000000 0.000000 
1.169906 90.363945 2.281067 0.000000 0.000000 0.000000 3.487981 -4.906536 -1.547387 -18.955404 2.453881 10.009382 35.180710 8.607941 2.013899 -16.270636 6.201484 -12.842584 0.000000 0.000000 0.000000 2.622354 -3.607455 -2.022717 -21.494149 3.852536 0.660654 29.064975 0.362852 -2.812259 -11.902608 -3.017017 10.011285 0.000000 0.000000 0.000000 2.642246 -4.926971 -1.591145 -0.291981 0.706507 -1.247093 2.863016 0.073247 0.159360 0.612882 -0.184009 -0.282305 0.000000 0.000000 0.000000 0.030503 0.520815 -0.473323 0.239582 -0.573782 0.509312 0.000000 0.000000 0.000000 0.152753 0.560147 -0.787490 1.254005 -15.826709 -10.334457 9.415646 -17.623763 -66.948715 0.358966 -24.315152 0.033575 0.000000 0.000000 0.000000 0.317638 0.562701 -0.636083 2.524363 10.942031 10.762958 7.690894 30.556231 60.082135 1.224216 18.390761 -0.192488 0.000000 0.000000 0.000000 
0.767026 90.042656 1.714550 0.000000 0.000000 0.000000 3.900743 -6.145153 -2.468827 -20.448212 1.769055 11.220505 37.459493 9.181785 2.003213 -17.333714 6.634458 -13.299189 0.000000 0.000000 0.000000 2.997155 -4.829378 -2.964351 -24.117427 4.056981 1.283141 30.164123 0.901220 -2.094777 -9.592050 -2.910980 11.388105 0.000000 0.000000 0.000000 3.100968 -6.010017 -2.519201 -0.343173 0.451784 -1.208345 3.415008 0.044952 -0.074596 1.006247 -0.158541 -0.457724 0.000000 0.000000 0.000000 0.377918 0.530334 -0.629811 0.273865 -0.572078 0.691393 0.000000 0.000000 0.000000 0.560607 0.569334 -0.953429 1.285895 -16.418474 -10.227555 8.683861 -16.492113 -66.637498 0.528717 -25.960221 0.123718 0.000000 0.000000 0.000000 0.712955 0.572213 -0.808263 2.539337 11.682868 10.902702 7.186576 31.004940 59.363175 1.162751 19.523706 -0.157974 0.000000 0.000000 0.000000 
0.226840 89.372086 1.125656 0.000000 0.000000 0.000000 3.974954 -7.856197 -3.400039 -22.210435 0.648487 12.532557 40.873959 9.669313 1.948645 -18.604259 7.259707 -13.772537 0.000000 0.000000 0.000000 3.083325 -6.547889 -3.881367 -27.190000 4.267797 1.467637 32.173090 1.985131 -1.084261 -7.821881 -1.998992 14.289614 0.000000 0.000000 0.000000 3.251671 -7.344277 -3.443443 -0.415434 0.287902 -1.112905 4.060663 0.033589 -0.355772 1.361927 -0.128817 -0.623159 0.000000 0.000000 0.000000 0.697479 0.539448 -0.776583 0.376171 -0.544828 0.844005 0.000000 0.000000 0.000000 0.923355 0.580216 -1.102472 1.287462 -17.053695 -10.140070 8.414264 -15.372210 -66.136360 0.720536 -28.483736 0.218562 0.000000 0.000000 0.000000 1.049228 0.577869 -0.961510 2.551142 12.395469 11.023307 6.564477 30.967873 58.685921 1.097957 21.118882 -0.066141 0.000000 0.000000 0.000000 
-0.377517 88.371689 0.647594 0.000000 0.000000 0.000000 3.720384 -9.819888 -4.303185 -24.162329 -0.686415 13.969392 45.341521 9.928456 1.759763 -20.165392 7.953059 -14.374522 0.000000 0.000000 0.000000 2.890679 -8.468638 -4.761472 -30.484685 4.504348 0.980632 35.037866 3.566726 0.065481 -7.058037 -0.301517 18.657538 0.000000 0.000000 0.000000 3.129709 -8.822077 -4.327421 -0.533744 0.173480 -1.089386 4.741248 0.026029 -0.639523 1.662744 -0.105419 -0.768956 0.000000 0.000000 0.000000 0.987994 0.539796 -0.906557 0.534898 -0.499866 0.950985 0.000000 0.000000 0.000000 1.223993 0.587539 -1.223366 1.262075 -17.713739 -10.094623 8.586397 -14.562935 -65.378093 0.940224 -31.624192 0.314579 0.000000 0.000000 0.000000 1.307017 0.573214 -1.089051 2.577146 12.987568 11.058633 5.666745 30.372909 58.248987 1.046842 22.968331 0.044188 0.000000 0.000000 0.000000 
